<?xml version="1.0" encoding="UTF-8"?>
<svg id="Layer_2" data-name="Layer 2" xmlns="http://www.w3.org/2000/svg" viewBox="0 0 387.21 387.21">
  <defs>
    <style>
      .cls-1 {
        fill: #fff;
      }
    </style>
  </defs>
  <g id="Layer_1-2" data-name="Layer 1">
    <path class="cls-1" d="m283.72,235.68c-7.29,6.44-16.88,10.35-27.38,10.35-22.87,0-41.41-18.54-41.41-41.42s18.54-41.41,41.41-41.41c10.5,0,20.08,3.9,27.37,10.34l13.9-19.57c-11.26-9.18-25.62-14.68-41.27-14.68-36.08,0-65.33,29.24-65.33,65.32s29.25,65.33,65.33,65.33c15.66,0,30.02-5.51,41.28-14.68l-13.9-19.58Z"/>
    <polygon class="cls-1" points="181.71 246.67 181.71 269.94 104.64 269.94 104.64 97.21 130.33 97.21 130.33 246.67 181.71 246.67"/>
  </g>
  <g id="Layer_2-2" data-name="Layer 2">
    <path class="cls-1" d="m193.61,387.21C86.85,387.21,0,300.36,0,193.61S86.85,0,193.61,0s193.61,86.85,193.61,193.61-86.85,193.61-193.61,193.61Zm0-367.21C97.88,20,20,97.88,20,193.61s77.88,173.61,173.61,173.61,173.61-77.88,173.61-173.61S289.33,20,193.61,20Z"/>
  </g>
</svg>